<svg id="Layer_1" data-name="Layer 1" xmlns="http://www.w3.org/2000/svg" viewBox="0 0 942.65 238.75"><defs><style>.cls-1{fill:#fefefe;}.cls-2{fill:#010101;}.cls-3{fill:#5d4037;}.cls-4{fill:#cd3e06;}.cls-5{fill:#2f7d33;}.cls-6{fill:#fc8f04;}.cls-7{fill:#fdfd05;}.cls-8{fill:#59b05c;}.cls-9{fill:#fefe3a;}.cls-10{fill:#d65e30;}.cls-11{fill:#afcd87;}.cls-12{fill:#795548;}.cls-13{fill:#dae8d9;}.cls-14{fill:#6c7b5a;}.cls-15{fill:#e1e1e1;}.cls-16{fill:#6d4c41;}.cls-17{fill:#68493e;}.cls-18{fill:#68483e;}</style></defs><title>site-logo-black-long-vector</title><path class="cls-1" d="M941.46,121.18c-4.62,1.9-9.42.53-14.13.73-8.58.37-8.74.79-9,9.18-.48,16.82,2.35,33.49,1.95,50.29-.12,4.78,1.11,8.17,6.91,8.23,5.47.06,9.21-1.34,9.92-7.55.88-7.73-1.39-15.71,1.84-23.25a1.77,1.77,0,0,1,2.49-.5v43.88c-3.28,1.14-5.08-1.7-7.49-2.85-5.44-2.59-10.55-2.34-14.5,2.41-3.82,4.6-3.91,9.85-.48,14.81,3.32,4.81,9.53,6.16,15,3.66,2.43-1.11,3.95-5.16,7.23-4"/><path class="cls-2" d="M940,158.4c-.42,9.21-1,18.42-1.2,27.64-.11,4.75-1.51,7.3-6.84,6.38a28.46,28.46,0,0,0-7.54,0c-4.61.46-6.33-1.16-6.47-6.06q-.84-29.76-2.52-59.5c-.28-5,.72-7.63,6.17-7.07,6.59.68,15.94-2.55,19.07,1.11a34.47,34.47,0,0,1,.75,8.75c-1.84,3.4-.42,7.08-.87,10.6q0,4.87,0,9.75C940.37,152.77,941.1,155.64,940,158.4Z"/><path class="cls-2" d="M941.2,216.21a3.83,3.83,0,0,1-1.41,2.26c-9.28,7.48-18.34,7.23-23.6-1-3.89-6.11-3.4-12.38,1.63-17.58s11.2-5.94,17.54-2.38a27.4,27.4,0,0,1,4.73,3.85,5.43,5.43,0,0,1,1.35,2.05,22,22,0,0,1,1.13,4C942.94,210.3,941.79,213,941.2,216.21Z"/><path d="M940,139.93c.19-3.48-1.6-7.24,1.47-10.32v10.13C941,140.45,940.55,140.48,940,139.93Z"/><path d="M940,139.93q.74-.07,1.47-.19v10.13c-.46.72-1,.78-1.5.08Z"/><path d="M940,150a5.65,5.65,0,0,1,1.5-.08c0,2.81-2.5,29.41-2.5,32.23-.47.08.49-23.27,0-23.29C938.94,156,940,152.77,940,150Z"/><path class="cls-3" d="M88.95,96c9.38,2.45,18.63,5.49,28.35,6.47,3.92-1.59,7.34.95,11,1.31a32.71,32.71,0,0,1,3.73.85c10.41,2.49,21,4.28,31.12,8a14.42,14.42,0,0,0,6.13,1.33c7.34,1.26,14.9,1.86,20.9,7.08,11.51,3.12,15.15,13.28,19.8,22.41a9.22,9.22,0,0,1-.35,8.18c-4.53,9.36-6.14,20.82-18.5,24.51-1.88.56-3.11,3.78-4.34,5.94-7.23,12.68-14.32,25.44-21.54,38.12-9,15.87-22.15,21.46-39.51,17.21-28.61-7-57.22-14-85.9-20.77-20-4.7-27.56-11.09-30.14-37.27C8.4,166,8.28,152.42,8.17,139c0-5.18-2.33-9.38-4.64-13.3C-4,112.84,1.88,101.48,8.92,92.27c6.23-8.16,16.65-12.21,28-8.49,1.56.51,3.34.35,5,.5C58.15,86,74.13,88.67,88.95,96Z"/><path d="M355.2,221.61c-29.41,0-52.76-22.7-53.09-51.74s23.68-53.27,52.73-53.47c28.88-.2,53.16,24.12,53,53.11S384.57,221.56,355.2,221.61Z"/><path d="M514.76,169.49c0,29.65-22.48,52.08-52.18,52.11-30.08,0-52.77-22.56-52.74-52.54a52.74,52.74,0,0,1,52.32-52.66C490.87,116,514.78,140.11,514.76,169.49Z"/><path d="M520.95,168.9c0-14.87.17-29.75-.09-44.62-.09-5,1.15-7.18,6.54-6.84,12,.77,24.12-1.22,36,1.82,26.37,6.73,40,28.14,37.26,58.43-2.16,23.5-22.19,42-47.11,43.16-8.68.41-17.41-.14-26.09.27-5.29.25-6.72-1.71-6.63-6.78C521.12,199.21,520.95,184.05,520.95,168.9Z"/><path d="M726.4,205.85a44,44,0,0,1-6.74-.05c-6.26-1-9.85,1.28-11.76,7.53-.83,2.72-.9,7.29-5.51,7.35-6.71.09-13.6.67-20.05-.7-3.09-.66-.34-4.83.72-7.23q16.57-37.22,33.21-74.4c2.06-4.61,3.92-9.32,6.19-13.83,1-2,1.08-5.52,4.6-5.13,2.71.3,2.87,3.1,3.75,5.06q15.15,33.72,30.27,67.44c3,6.65,6,13.28,9,19.93,4,8.89,3.94,8.9-6.18,8.93-3.66,0-7.31-.07-11,0-2.7.07-5.05-.1-5.76-3.43C744.65,205.6,736.63,203.7,726.4,205.85Z"/><path d="M238,168.94c0-14.6.23-29.21-.11-43.8-.13-5.66,1.2-7.92,7.39-7.76,16.56.42,33.13.32,49.7,0,5.17-.09,7.35.88,7.32,6.78-.08,17,.22,17-16.63,17-4.49,0-9.09.61-13.46-.13-9-1.52-10.78,2.54-10.22,10.55.35,5,2,6.16,6.52,5.94,6.16-.29,12.35,0,18.53-.09,3.42-.05,5.41,1.09,5,4.86a4.93,4.93,0,0,0,0,.84c1,18,1,18-17.11,18-12.7,0-12.69,0-12.7,13,0,7.3-.06,14.6,0,21.9,0,3.34-.94,5.48-4.77,5a4.94,4.94,0,0,0-.84,0C238,222.13,238,222.13,238,203.48Q238,186.21,238,168.94Z"/><path d="M634.3,170.33c0-14.6.18-29.21-.1-43.81-.1-5,1.32-6.94,6.6-6.86,16.57.27,33.14.19,49.71,0,4.24,0,5.84,1.29,6.07,5.76.94,17.66,1.1,17.65-16.77,17.65-5.06,0-10.19.58-15.15-.14-7.53-1.09-6.83,3.31-7.17,8.35-.39,5.9,1.37,8.3,7.34,7.29a30.73,30.73,0,0,1,5,0c17.6,0,17.45,0,16.84,17.58-.15,4.28-1.21,6.11-5.74,5.85-5.6-.32-11.25.25-16.84-.17-5-.37-7,.8-6.63,6.31.53,8.67,0,17.41.2,26.11.1,4.38-.84,6.47-6,6.63-17.45.53-17.44.76-17.44-16.86Z"/><path class="cls-2" d="M778.58,170.17c0-14,.34-28.08-.15-42.1-.24-6.86,2.19-8.6,8.71-8.45,14.51.34,14.52,0,14.52,14.82,0,18.81.18,37.61-.12,56.41-.08,5.09,1.12,6.94,6.47,6.67,8.68-.44,17.4.09,26.09-.2,5-.17,6.9,1.37,7.07,6.63.53,16.82.73,16.81-15.83,16.81-12.35,0-24.72-.42-37,.16-7.41.35-10.37-1.34-9.93-9.49C779.12,197.71,778.58,183.92,778.58,170.17Z"/><path d="M870.3,159.9c0,10.69.23,21.38-.11,32.06-.15,4.6,1.43,5.68,5.74,5.53,9-.31,18,.11,27-.17,4.85-.15,6.16,1.75,6.3,6.41.49,17,.66,17-16.6,17-13.22,0-26.44-.16-39.65.08-4.7.09-6.42-1.36-6.39-6.22q.26-44.29,0-88.59c0-4.83,1.73-6.4,6.41-6.33,21,.35,16.93-2.18,17.28,16.57C870.42,144.15,870.3,152,870.3,159.9Z"/><path class="cls-4" d="M95.65,12.44c5-6.12,11.1-9.87,19.07-6.86,9.18,3.47,12.79,11.77,14.14,20.47,1.15,7.43-3.62,12.13-9.41,17.23-11.79,10.4-22.57,8.76-34.07,1-11-7.42-10.61-18.62.71-25.56,1.43-.88,3-1.54,4.48-2.3C91.78,14.48,94.16,14,95.65,12.44Z"/><path class="cls-5" d="M163.28,114.31l-31.89-8c5.24-4.18-1.21-5.67-2-8.46-1.68-4.85-4.23-8.64-10.12-8.46-3-2.23-6.64-5.24-3.67-8.74,4.13-4.86,7-14.36,14.24-12.34,7.5,2.09,15.7,1.71,22.95,8,9.19,8,14.76,16,14.24,28,.86,2.39,3.88,4.38,1.35,7.4A7.86,7.86,0,0,1,163.28,114.31Z"/><path class="cls-6" d="M88.95,96c-15.76-3.54-31.67-6.46-47-11.72,10-9.74,21.82-12.4,35-8.32C86.72,79,90.36,85.53,88.95,96Z"/><path class="cls-7" d="M190.19,121c-7.2-1.61-14.09-4.56-21.56-5.06a2.47,2.47,0,0,1-1-2.78c1.29-1.63,1.75-3.83,3.52-5.13,3.4-6.79,3.12-13.63.34-20.52a2.65,2.65,0,0,1,2.12-2c1.5,1.22,2.81,2.9,4.53,3.59C193.71,95.42,197.71,105.88,190.19,121Z"/><path class="cls-8" d="M119.3,89.36c7.44-2,10.71,1.82,11.88,8.55a66.43,66.43,0,0,1-3.38,7.8l-10.51-3.25a67.82,67.82,0,0,1,4.69-6.9C125.61,91.38,121.55,90.82,119.3,89.36Z"/><path class="cls-9" d="M173.64,85.5l-2.12,2c-1.16-.73-2.34-1.43-3.47-2.21-1.66-1.13-3.36-2.42-1.89-4.66.71-1.08,2-2.43,3.07-2.47,1.94-.07,2.19,2.11,2.87,3.54C172.69,82.94,173.14,84.23,173.64,85.5Z"/><path class="cls-4" d="M88.55,5c-1.23-.84-1.22-1.59.16-2.24,1.89.61,4.4-4.53,5.8.62a1.23,1.23,0,0,1-.27,1.34c-2.83,2.24,2.12,7.73-3.65,8.75v-.06C88.95,10.85,91.78,7.2,88.55,5Z"/><path class="cls-10" d="M90.58,13.48c3.41-2,.41-6.67,3.65-8.75,1.22,2.43-1.62,5.61,1.41,7.71-.51,2.84-3,3.11-5.09,4Z"/><path class="cls-11" d="M171.18,108c-.48,2-1,4-3.11,5.09-1.08-.23-1.91-.63-1.27-2,2.58-2.2-.89-4.61.24-6.86Z"/><path class="cls-10" d="M94.51,3.39c-1.71-2.26-3.94.27-5.8-.62C90,.59,92-.47,94.29.2,96.12.74,95.6,2.23,94.51,3.39Z"/><path class="cls-10" d="M88.55,5c4,2,2,5.45,2,8.41C88.37,11,89.4,7.77,88.55,5Z"/><path class="cls-12" d="M192.22,149.12c.3,4.15-.83,10.26-5.92,11.64-9.51,2.58-11.61,10.83-15.71,17.4-6.36,10.21-11.92,20.94-17.61,31.56-6.56,12.21-11,14.52-24.38,11.45-29.95-6.89-59.91-13.75-89.77-21-7.44-1.81-11.77-7.14-12.12-15.29-.75-17.35-2.38-34.67-1.65-52.06.15-3.54-.41-6.64-3.32-9.07-7.24-6-5-13.26-1.37-19.68s9.62-4.83,15.72-3.34q73.27,17.95,146.66,35.42C189.3,137.72,192.37,141.27,192.22,149.12Z"/><path class="cls-13" d="M127.8,105.71c-3.84-4.75,1.09-5.7,3.38-7.8,3.13,2.72,7.59,5.4.2,8.37Z"/><path class="cls-14" d="M166.81,111.15l1.27,2,.56,2.82c-2.06.37-4,.4-5.36-1.62Z"/><path class="cls-1" d="M355,141a28.55,28.55,0,0,1,28.59,28c.18,15.76-12.86,28.53-29,28.39A28.21,28.21,0,1,1,355,141Z"/><path class="cls-1" d="M461.46,197.4c-15.54-.29-28.17-13.44-27.7-28.85A28.67,28.67,0,0,1,462.84,141a28.3,28.3,0,0,1,28,29.37C490.39,185.8,477.48,197.7,461.46,197.4Z"/><path class="cls-1" d="M577.2,169.23c0,17-11.6,28.58-27.75,28-3.68-.13-4.71-1.1-4.67-4.73.18-15.43.27-30.86,0-46.29-.09-4.5,1.73-4.84,5.4-4.86C565.92,141.24,577.18,152.69,577.2,169.23Z"/><path class="cls-15" d="M732.38,184.77c-12.16.73-12.16.73-6.15-12.41C729.78,175.55,730.36,180,732.38,184.77Z"/><path class="cls-16" d="M48.67,133c10.25-2.47,18.22,3.27,18.51,13.72.27,9.8.06,19.61.06,29.42,0,5.4-1.4,11-7,12a14.87,14.87,0,0,1-14.74-6c-1.31-1.77-2.77-4-2.86-6-.54-11.58-2.49-23.23,1-34.71,1.8,3.9.32,8,.72,11,.13,2.14,2,.72.88,1.07-.24.08-.4-.07-.41-.44C44.56,146.06,42.65,138.76,48.67,133Z"/><path class="cls-16" d="M138.11,156.6c3.74-3.08,8.11-1.9,12.07-1.19,5.21.94,7.9,4.59,6.12,9.92-4,12-9.92,23.26-16.52,34-4,6.55-14.08,7.63-20.28,3.35a7.35,7.35,0,0,1-2.7-9.7c5.2-11.1,10.81-22,16.26-33C135.44,159.89,136.87,158.38,138.11,156.6Z"/><path class="cls-16" d="M109.62,156.55c-2.28,11.09-3.86,22.3-7.84,33.13-2.94,8-8.79,6.2-13.78,5.32-5.3-.94-7.92-6.09-7-11a315,315,0,0,1,8-33.28c1.7-5.63,7-8.52,12.77-7.27C108.41,144.84,110.19,150.17,109.62,156.55Z"/><path class="cls-17" d="M48.67,133c-3.84,6.74-3.77,14.2-5.06,21.65q0-6.61,0-13.21C43.84,137.74,43.91,134,48.67,133Z"/><path class="cls-18" d="M138.11,156.6c1.47,3.59-1.83,4.31-3.68,5.5-1,.64-1.21-1.14-1.36-2.1A5.16,5.16,0,0,1,138.11,156.6Z"/></svg>